<?xml version="1.0" standalone="no"?>
<!DOCTYPE svg PUBLIC "-//W3C//DTD SVG 1.1//EN" "http://www.w3.org/Graphics/SVG/1.1/DTD/svg11.dtd" >
<svg xmlns="http://www.w3.org/2000/svg">
<metadata>Generated by IcoMoon</metadata>
<defs>
<font id="fonts" horiz-adv-x="1024">
<font-face units-per-em="1024" ascent="960" descent="-64" />
<missing-glyph horiz-adv-x="1024" />
<glyph unicode="&#x20;" horiz-adv-x="512" d="" />
<glyph unicode="&#xe900;" glyph-name="strava" d="M656.515 185.246l-89.131 175.616h-130.773l219.904-434.005 219.733 434.005h-130.816zM446.424 599.753l121.003-238.848h178.005l-299.008 589.952-298.667-589.995h177.877z" />
<glyph unicode="&#xe901;" glyph-name="phone" d="M914.287 205.707c0-20.571-9.143-60.571-17.714-79.429-12-28-44-46.286-69.714-60.571-33.714-18.286-68-29.143-106.286-29.143-53.143 0-101.143 21.714-149.714 39.429-34.857 12.571-68.571 28-100 47.429-97.143 60-214.286 177.143-274.286 274.286-19.429 31.429-34.857 65.143-47.429 100-17.714 48.571-39.429 96.571-39.429 149.714 0 38.286 10.857 72.571 29.143 106.286 14.286 25.714 32.571 57.714 60.571 69.714 18.857 8.571 58.857 17.714 79.429 17.714 4 0 8 0 12-1.714 12-4 24.571-32 30.286-43.429 18.286-32.571 36-65.714 54.857-97.714 9.143-14.857 26.286-33.143 26.286-50.857 0-34.857-103.429-85.714-103.429-116.571 0-15.429 14.286-35.429 22.286-49.143 57.714-104 129.714-176 233.714-233.714 13.714-8 33.714-22.286 49.143-22.286 30.857 0 81.714 103.429 116.571 103.429 17.714 0 36-17.143 50.857-26.286 32-18.857 65.143-36.571 97.714-54.857 11.429-5.714 39.429-18.286 43.429-30.286 1.714-4 1.714-8 1.714-12z" />
<glyph unicode="&#xe902;" glyph-name="github" d="M512.004 866.928c242.286 0 438.857-196.571 438.857-438.857 0-193.714-125.714-358.286-300-416.571-22.286-4-30.286 9.714-30.286 21.143 0 14.286 0.571 61.714 0.571 120.571 0 41.143-13.714 67.429-29.714 81.143 97.714 10.857 200.571 48 200.571 216.571 0 48-17.143 86.857-45.143 117.714 4.571 11.429 19.429 56-4.571 116.571-36.571 11.429-120.571-45.143-120.571-45.143-34.857 9.714-72.571 14.857-109.714 14.857s-74.857-5.143-109.714-14.857c0 0-84 56.571-120.571 45.143-24-60.571-9.143-105.143-4.571-116.571-28-30.857-45.143-69.714-45.143-117.714 0-168 102.286-205.714 200-216.571-12.571-11.429-24-30.857-28-58.857-25.143-11.429-89.143-30.857-127.429 36.571-24 41.714-67.429 45.143-67.429 45.143-42.857 0.571-2.857-26.857-2.857-26.857 28.571-13.143 48.571-64 48.571-64 25.714-78.286 148-52 148-52 0-36.571 0.571-70.857 0.571-81.714 0-11.429-8-25.143-30.286-21.143-174.286 58.286-300 222.857-300 416.571 0 242.286 196.571 438.857 438.857 438.857zM239.433 236.642c1.143 2.286-0.571 5.143-4 6.857-3.429 1.143-6.286 0.571-7.429-1.143-1.143-2.286 0.571-5.143 4-6.857 2.857-1.714 6.286-1.143 7.429 1.143zM257.147 217.214c2.286 1.714 1.714 5.714-1.143 9.143-2.857 2.857-6.857 4-9.143 1.714-2.286-1.714-1.714-5.714 1.143-9.143 2.857-2.857 6.857-4 9.143-1.714zM274.29 191.5c2.857 2.286 2.857 6.857 0 10.857-2.286 4-6.857 5.714-9.714 3.429-2.857-1.714-2.857-6.286 0-10.286s7.429-5.714 9.714-4zM298.29 167.5c2.286 2.286 1.143 7.429-2.286 10.857-4 4-9.143 4.571-11.429 1.714-2.857-2.286-1.714-7.429 2.286-10.857 4-4 9.143-4.571 11.429-1.714zM330.861 153.214c1.143 3.429-2.286 7.429-7.429 9.143-4.571 1.143-9.714-0.571-10.857-4s2.286-7.429 7.429-8.571c4.571-1.714 9.714 0 10.857 3.429zM366.861 150.357c0 4-4.571 6.857-9.714 6.286-5.143 0-9.143-2.857-9.143-6.286 0-4 4-6.857 9.714-6.286 5.143 0 9.143 2.857 9.143 6.286zM400.004 156.071c-0.571 3.429-5.143 5.714-10.286 5.143-5.143-1.143-8.571-4.571-8-8.571 0.571-3.429 5.143-5.714 10.286-4.571s8.571 4.571 8 8z" />
<glyph unicode="&#xe903;" glyph-name="twitter" d="M962.285 717.714c-25.143-36.571-56.571-69.143-92.571-95.429 0.571-8 0.571-16 0.571-24 0-244-185.714-525.143-525.143-525.143-104.571 0-201.714 30.286-283.429 82.857 14.857-1.714 29.143-2.286 44.571-2.286 86.286 0 165.714 29.143 229.143 78.857-81.143 1.714-149.143 54.857-172.571 128 11.429-1.714 22.857-2.857 34.857-2.857 16.571 0 33.143 2.286 48.571 6.286-84.571 17.143-148 91.429-148 181.143v2.286c24.571-13.714 53.143-22.286 83.429-23.429-49.714 33.143-82.286 89.714-82.286 153.714 0 34.286 9.143 65.714 25.143 93.143 90.857-112 227.429-185.143 380.571-193.143-2.857 13.714-4.571 28-4.571 42.286 0 101.714 82.286 184.571 184.571 184.571 53.143 0 101.143-22.286 134.857-58.286 41.714 8 81.714 23.429 117.143 44.571-13.714-42.857-42.857-78.857-81.143-101.714 37.143 4 73.143 14.286 106.286 28.571z" />
<glyph unicode="&#xe904;" glyph-name="linkedin" d="M272.567 585.718v-566.286h-188.571v566.286h188.571zM284.567 760.575c0.571-54.286-40.571-97.714-106.286-97.714v0h-1.143c-63.429 0-104 43.429-104 97.714 0 55.429 42.286 97.714 106.286 97.714 64.571 0 104.571-42.286 105.143-97.714zM950.852 344.004v-324.571h-188v302.857c0 76-27.429 128-95.429 128-52 0-82.857-34.857-96.571-68.571-4.571-12.571-6.286-29.143-6.286-46.286v-316h-188c2.286 513.143 0 566.286 0 566.286h188v-82.286h-1.143c24.571 38.857 69.143 95.429 170.857 95.429 124 0 216.571-81.143 216.571-254.857z" />
<glyph unicode="&#xe905;" glyph-name="mail" d="M1024.010 581.722v-453.714c0-50.286-41.143-91.429-91.429-91.429h-841.143c-50.286 0-91.429 41.143-91.429 91.429v453.714c17.143-18.857 36.571-35.429 57.714-49.714 94.857-64.571 190.857-129.143 284-197.143 48-35.429 107.429-78.857 169.714-78.857h1.143c62.286 0 121.714 43.429 169.714 78.857 93.143 67.429 189.143 132.571 284.571 197.143 20.571 14.286 40 30.857 57.143 49.714zM1024.010 749.722c0-64-47.429-121.714-97.714-156.571-89.143-61.714-178.857-123.429-267.429-185.714-37.143-25.714-100-78.286-146.286-78.286h-1.143c-46.286 0-109.143 52.571-146.286 78.286-88.571 62.286-178.286 124-266.857 185.714-40.571 27.429-98.286 92-98.286 144 0 56 30.286 104 91.429 104h841.143c49.714 0 91.429-41.143 91.429-91.429z" />
<glyph unicode="&#xe906;" glyph-name="keybase" d="M445.633 38.985c-0.024-22.438-18.22-40.619-40.661-40.619-22.457 0-40.661 18.205-40.661 40.661 0 22.427 18.156 40.613 40.571 40.661h0.005c22.357 0 40.576-18.347 40.576-40.747zM698.177 38.985c-0.025-22.438-18.22-40.618-40.661-40.618-22.457 0-40.661 18.205-40.661 40.661 0 22.382 18.083 40.54 40.436 40.661h0.012c22.443 0 40.704-18.347 40.704-40.747zM891.884 429.769l-6.656 8.704c-1.963 2.56-4.096 4.949-6.101 7.467-1.92 2.56-4.011 4.821-6.016 7.211-4.437 5.12-8.96 10.197-13.653 15.317l-3.2 3.413-3.883 4.224-5.76 5.547c-0.64 0.811-1.365 1.493-2.133 2.304-46.531 46.174-102.838 82.568-165.536 105.796l-3.21 1.042-9.813 3.328 1.493 3.541c7.537 18.832 11.908 40.661 11.908 63.51 0 27.392-6.282 53.318-17.484 76.413l0.457-1.043c-20.756 43.559-57.666 76.606-102.785 91.799l-1.237 0.361c-27.989 9.216-52.48 13.611-73.045 13.013-1.408 4.48-4.267 24.619 21.163 78.848l-51.499 30.293-12.245-17.024c-14.080-19.413-27.648-38.187-40.32-56.661-13.467 14.259-32.107 23.509-52.904 24.736l-0.216 0.010-60.032 3.669c-1.408 0.128-2.987 0.128-4.437 0.128-42.24 0-77.227-32.896-79.787-74.88l-3.755-59.819v-0.128c-0.084-1.373-0.132-2.979-0.132-4.596 0-42.436 33.024-77.16 74.775-79.872l0.237-0.012 42.752-2.56c-2.773-35.84 3.115-69.12 17.28-98.389-60.817-26.022-112.68-61.803-156.098-105.921l-0.062-0.063c-141.056-142.677-141.056-298.837-141.056-424.405v-75.733l55.68 59.179c11.349-39.68 27.819-77.099 48.853-111.573h72.448c-34.791 46.12-59.929 101.498-71.297 161.741l-0.383 2.44 81.621 86.613-42.027-131.84 74.24 54.059c131.2 95.317 287.787 117.333 465.493 65.28 77.056-22.741 151.893-1.707 190.891 53.589l4.437 7.040c3.84-21.248 5.973-42.581 5.973-63.829 0-66.688-10.837-157.312-58.88-235.179h68.779c33.109 66.688 50.389 146.432 50.389 235.179-0.043 93.867-33.536 188.629-93.184 267.691zM379.457 686.665c5.205 42.752 24.619 83.157 52.48 126.72 9.748-19.143 29.307-32.028 51.876-32.028 1.008 0 2.009 0.026 3.004 0.076l-0.14-0.006c9.216 0.341 25.771-1.067 52.608-9.899 30.589-10.24 54.941-32.050 68.309-60.102l0.299-0.698c13.739-29.056 14.891-61.525 3.371-91.733-7.517-18.976-19.285-34.885-34.188-47.115l-0.201-0.16-17.408 21.419-0.085 0.128c-11.573 13.975-28.927 22.812-48.345 22.812-15.049 0-28.859-5.308-39.659-14.153l0.111 0.088c-14.251-11.52-21.931-28.16-22.784-45.141-51.2 23.040-76.8 70.101-69.461 129.707zM563.095 468.638l-22.187-18.133c-1.673-1.397-3.846-2.246-6.217-2.246-3.047 0-5.767 1.401-7.55 3.593l-0.014 0.018-4.693 5.76c-1.412 1.73-2.268 3.963-2.268 6.396 0 3.157 1.441 5.978 3.701 7.84l21.777 17.934-45.056 55.424c-1.886 2.253-3.031 5.183-3.031 8.38 0 4.123 1.905 7.802 4.884 10.203l0.025 0.020c2.25 1.948 5.206 3.135 8.439 3.135 4.087 0 7.732-1.897 10.101-4.858l0.020-0.026 126.421-155.563c1.902-2.269 3.058-5.221 3.058-8.443 0-6.232-4.324-11.455-10.136-12.83l-0.089-0.018c-0.889-0.21-1.91-0.33-2.959-0.33-4.108 0-7.786 1.843-10.251 4.748l-0.016 0.019-12.587 15.573-44.587-36.437c-1.775-1.458-4.069-2.343-6.57-2.347h-0.001c-0.001 0-0.003 0-0.004 0-3.206 0-6.063 1.492-7.916 3.819l-0.016 0.021-20.352 24.747c-1.394 1.734-2.237 3.963-2.237 6.389 0 3.175 1.445 6.013 3.714 7.891l0.017 0.014 44.8 36.608-18.133 22.741zM330.732 743.241l-51.029 3.2c-10.398 0.632-18.591 9.22-18.591 19.72 0 0.387 0.011 0.772 0.033 1.154l-0.002-0.053 3.84 59.733c0.582 10.413 9.164 18.638 19.669 18.645h1.025l59.776-3.883c10.346-0.583 18.516-9.115 18.516-19.555 0-0.446-0.015-0.888-0.044-1.326l0.003 0.059-0.299-4.309c-12.363-20.933-23.518-45.186-32.159-70.601l-0.822-2.785zM865.132 253.342c-24.107-34.347-71.979-46.080-124.757-30.635-165.803 48.683-315.605 38.528-446.677-29.867l69.803 218.539-225.707-239.317c4.181 160.512 104.619 297.259 245.632 354.645 20.096-15.915 44.117-28.16 71.381-35.883 6.827-1.877 13.739-3.157 20.48-4.352-2.731-6.624-4.316-14.315-4.316-22.377 0-14.325 5.006-27.48 13.365-37.811l-0.089 0.113 3.2-3.84c-7.339-19.2-4.48-41.6 9.429-58.624l20.309-24.832c10.96-13.402 27.495-21.888 46.012-21.888 0.009 0 0.018 0 0.027 0h-0.001c13.653 0 27.093 4.736 37.803 13.397l12.16 9.899c7.424-3.157 15.659-4.821 24.149-4.821 0.151-0.001 0.329-0.002 0.508-0.002 14.875 0 28.525 5.25 39.196 13.998l-0.109-0.087c26.581 21.76 30.72 61.227 8.917 87.893l-71.253 87.765c6.331 5.156 12.013 10.46 17.32 16.119l0.088 0.094c5.76-1.536 11.52-3.285 17.067-5.12 11.349-4.096 22.741-8.405 33.92-13.397 45.698-20.9 84.798-48.080 118.24-80.991l-0.053 0.052c1.28-1.28 2.56-2.347 3.669-3.541l7.253-7.509c1.621-1.664 3.243-3.371 4.693-5.12 3.413-3.627 6.827-7.467 10.24-11.392l5.376-6.4c1.92-2.261 3.669-4.437 5.547-6.827l4.864-6.4c1.707-2.133 3.371-4.352 4.992-6.571 35.755-49.024 42.112-99.371 17.237-134.699v-0.213zM329.281 775.284l-35.627 2.133 2.261 35.669 35.584-2.176z" />
<glyph unicode="&#xe907;" glyph-name="family" d="M682 768.667q0 34 25 59t61 25 61-25 25-59q0-36-25-61t-61-25-61 25-25 61zM854 0.667v256h106l-108 324q-10 28-32 44t-50 16h-4q-28 0-50-16t-32-44l-36-110q34-18 56-53t22-77v-340h128zM534 448.667q26 0 45 18t19 46q0 26-19 45t-45 19q-28 0-46-19t-18-45q0-28 18-46t46-18zM234 682.667q36 0 61 25t25 61q0 34-25 59t-61 25q-34 0-59-25t-25-59q0-36 25-61t59-25zM320 0.667v298h64v256q0 36-25 61t-61 25h-128q-34 0-59-25t-25-61v-256h64v-298h170zM598 0.667v170h42v170q0 26-19 45t-45 19h-86q-26 0-45-19t-19-45v-170h44v-170h128z" />
<glyph unicode="&#xe98d;" glyph-name="key" d="M704 950.857c-176.73 0-320-143.268-320-320 0-20.026 1.858-39.616 5.376-58.624l-389.376-389.376v-192c0-35.346 28.654-64 64-64h64v64h128v128h128v128h128l83.042 83.042c34.010-12.316 70.696-19.042 108.958-19.042 176.73 0 320 143.268 320 320s-143.27 320-320 320zM799.874 630.731c-53.020 0-96 42.98-96 96s42.98 96 96 96 96-42.98 96-96-42.98-96-96-96z" />
<glyph unicode="&#xe9aa;" glyph-name="lab" d="M956.29 146.384l-316.29 527.024v213.458h32c17.6 0 32 14.4 32 32s-14.4 32-32 32h-320c-17.6 0-32-14.4-32-32s14.4-32 32-32h32v-213.458l-316.288-527.024c-72.442-120.734-16.512-219.518 124.288-219.518h640c140.8 0 196.73 98.784 124.29 219.518zM241.038 310.866l206.962 344.938v231.062h128v-231.062l206.964-344.938h-541.926z" />
<glyph unicode="&#xf057;" glyph-name="error" d="M729.708 309.714c0 9.714-4 18.857-10.857 25.714l-103.429 103.429 103.429 103.429c6.857 6.857 10.857 16 10.857 25.714s-4 19.429-10.857 26.286l-51.429 51.429c-6.857 6.857-16.571 10.857-26.286 10.857s-18.857-4-25.714-10.857l-103.429-103.429-103.429 103.429c-6.857 6.857-16 10.857-25.714 10.857s-19.429-4-26.286-10.857l-51.429-51.429c-6.857-6.857-10.857-16.571-10.857-26.286s4-18.857 10.857-25.714l103.429-103.429-103.429-103.429c-6.857-6.857-10.857-16-10.857-25.714s4-19.429 10.857-26.286l51.429-51.429c6.857-6.857 16.571-10.857 26.286-10.857s18.857 4 25.714 10.857l103.429 103.429 103.429-103.429c6.857-6.857 16-10.857 25.714-10.857s19.429 4 26.286 10.857l51.429 51.429c6.857 6.857 10.857 16.571 10.857 26.286zM950.851 438.857c0-242.286-196.571-438.857-438.857-438.857s-438.857 196.571-438.857 438.857 196.571 438.857 438.857 438.857 438.857-196.571 438.857-438.857z" />
<glyph unicode="&#xf06c;" glyph-name="leaf" d="M731.439 511.992c0 20-16.571 36.571-36.571 36.571-202.286 0-332.571-84.571-464.571-230.286-6.857-7.429-10.857-15.429-10.857-25.714 0-20 16.571-36.571 36.571-36.571 10.286 0 18.286 4 25.714 10.857 28 25.143 53.143 52.571 80.571 78.286 103.429 93.143 192 130.286 332.571 130.286 20 0 36.571 16.571 36.571 36.571zM1024.010 625.135c0-36.571-4-73.714-11.429-110.286-36.571-177.714-150.857-293.143-309.714-372-77.143-38.857-163.429-61.714-250.286-61.714-54.857 0-111.429 9.143-163.429 26.857-27.429 9.143-82.286 45.143-105.143 45.143-28.571 0-62.857-116.571-112.571-116.571-36 0-46.857 17.714-62.286 44-5.143 9.714-9.143 13.143-9.143 25.143 0 59.429 113.143 105.714 113.143 138.857 0 5.143-14.857 35.429-17.143 46.857-3.429 19.429-5.143 39.429-5.143 59.429 0 181.714 144.571 311.429 306.857 365.143 117.143 38.857 366.286-6.286 445.714 69.143 31.429 29.143 46.857 56 94.857 56 64.571 0 85.714-167.429 85.714-216z" />
<glyph unicode="&#xf071;" glyph-name="reject" d="M585.143 128.584v108.571c0 10.286-8 18.857-18.286 18.857h-109.714c-10.286 0-18.286-8.571-18.286-18.857v-108.571c0-10.286 8-18.857 18.286-18.857h109.714c10.286 0 18.286 8.571 18.286 18.857zM584 342.298l10.286 262.286c0 3.429-1.714 8-5.714 10.857-3.429 2.857-8.571 6.286-13.714 6.286h-125.714c-5.143 0-10.286-3.429-13.714-6.286-4-2.857-5.714-8.571-5.714-12l9.714-261.143c0-7.429 8.571-13.143 19.429-13.143h105.714c10.286 0 18.857 5.714 19.429 13.143zM576 876.012l438.857-804.571c12.571-22.286 12-49.714-1.143-72s-37.143-36-62.857-36h-877.714c-25.714 0-49.714 13.714-62.857 36s-13.714 49.714-1.143 72l438.857 804.571c12.571 23.429 37.143 38.286 64 38.286s51.429-14.857 64-38.286z" />
<glyph unicode="&#xf08e;" glyph-name="external" d="M804.561 347.424v-182.857c0-90.857-73.714-164.571-164.571-164.571h-475.429c-90.857 0-164.571 73.714-164.571 164.571v475.429c0 90.857 73.714 164.571 164.571 164.571h402.286c10.286 0 18.286-8 18.286-18.286v-36.571c0-10.286-8-18.286-18.286-18.286h-402.286c-50.286 0-91.429-41.143-91.429-91.429v-475.429c0-50.286 41.143-91.429 91.429-91.429h475.429c50.286 0 91.429 41.143 91.429 91.429v182.857c0 10.286 8 18.286 18.286 18.286h36.571c10.286 0 18.286-8 18.286-18.286zM1023.99 841.139v-292.571c0-20-16.571-36.571-36.571-36.571-9.714 0-18.857 4-25.714 10.857l-100.571 100.571-372.571-372.571c-3.429-3.429-8.571-5.714-13.143-5.714s-9.714 2.286-13.143 5.714l-65.143 65.143c-3.429 3.429-5.714 8.571-5.714 13.143s2.286 9.714 5.714 13.143l372.571 372.571-100.571 100.571c-6.857 6.857-10.857 16-10.857 25.714 0 20 16.571 36.571 36.571 36.571h292.571c20 0 36.571-16.571 36.571-36.571z" />
<glyph unicode="&#xf09e;" glyph-name="rss" horiz-adv-x="805" d="M219.429 182.857c0-60.571-49.143-109.714-109.714-109.714s-109.714 49.143-109.714 109.714 49.143 109.714 109.714 109.714 109.714-49.143 109.714-109.714zM512 112.571c0.571-10.286-2.857-20-9.714-27.429-6.857-8-16.571-12-26.857-12h-77.143c-18.857 0-34.286 14.286-36 33.143-16.571 174.286-154.857 312.571-329.143 329.143-18.857 1.714-33.143 17.143-33.143 36v77.143c0 10.286 4 20 12 26.857 6.286 6.286 15.429 9.714 24.571 9.714h2.857c121.714-9.714 236.571-62.857 322.857-149.714 86.857-86.286 140-201.143 149.714-322.857zM804.571 111.428c0.571-9.714-2.857-19.429-10.286-26.857-6.857-7.429-16-11.429-26.286-11.429h-81.714c-19.429 0-35.429 14.857-36.571 34.286-18.857 332-283.429 596.571-615.429 616-19.429 1.143-34.286 17.143-34.286 36v81.714c0 10.286 4 19.429 11.429 26.286 6.857 6.857 16 10.286 25.143 10.286h1.714c200-10.286 388-94.286 529.714-236.571 142.286-141.714 226.286-329.714 236.571-529.714z" />
<glyph unicode="&#xf0ac;" glyph-name="space" d="M511.994 877.714c242.286 0 438.857-196.571 438.857-438.857s-196.571-438.857-438.857-438.857-438.857 196.571-438.857 438.857 196.571 438.857 438.857 438.857zM668.566 580c-4.571-3.429-7.429-9.714-13.143-10.857 2.857 0.571 5.714 10.857 7.429 13.143 3.429 4 8 6.286 12.571 8.571 9.714 4 19.429 5.143 29.714 6.857 9.714 2.286 21.714 2.286 29.143-6.286-1.714 1.714 12 13.714 13.714 14.286 5.143 2.857 13.714 1.714 17.143 6.857 1.143 1.714 1.143 12.571 1.143 12.571-9.714-1.143-13.143 8-13.714 16 0-0.571-1.143-2.286-3.429-4.571 0.571 8.571-10.286 2.286-14.286 3.429-13.143 3.429-11.429 12.571-15.429 22.286-2.286 5.143-8.571 6.857-10.857 12-2.286 3.429-3.429 10.857-8.571 11.429-3.429 0.571-9.714-12-10.857-11.429-5.143 2.857-7.429-1.143-11.429-3.429-3.429-2.286-6.286-1.143-9.714-2.857 10.286 3.429-4.571 9.143-9.714 8 8 2.286 4 10.857-0.571 14.857h2.857c-1.143 5.143-17.143 9.714-22.286 13.143s-32.571 9.143-38.286 5.714c-6.857-4 1.714-15.429 1.714-21.143 0.571-6.857-6.857-8.571-6.857-14.286 0-9.714 18.286-8 13.714-21.143-2.857-8-13.714-9.714-18.286-16-4.571-5.714 0.571-16 5.143-20 4.571-3.429-8-9.143-9.714-10.286-9.714-4.571-17.143 9.714-19.429 18.286-1.714 6.286-2.286 13.714-9.143 17.143-3.429 1.143-14.286 2.857-16.571-0.571-3.429 8.571-15.429 12-23.429 14.857-11.429 4-21.143 4-33.143 2.286 4 0.571-1.143 18.286-10.857 15.429 2.857 5.714 1.714 12 2.857 17.714 1.143 4.571 3.429 9.143 6.857 13.143 1.143 2.286 13.714 15.429 9.714 16 9.714-1.143 20.571-1.714 28.571 6.286 5.143 5.143 7.429 13.714 12.571 19.429 7.429 8.571 16.571-2.286 24.571-2.857 11.429-0.571 10.857 12 4.571 17.714 7.429-0.571 1.143 13.143-2.857 14.857-5.143 1.714-24.571-3.429-14.286-7.429-2.286 1.143-16-27.429-24-13.143-2.286 2.857-3.429 14.857-8.571 15.429-4.571 0-7.429-5.143-9.143-8.571 2.857 7.429-16 12.571-20 13.143 8.571 5.714 1.714 12-4.571 15.429-4.571 2.857-18.857 5.143-22.857 0.571-10.857-13.143 11.429-14.857 17.143-18.286 1.714-1.143 8.571-5.143 4.571-8-3.429-1.714-13.714-4.571-14.857-6.857-3.429-5.143 4-10.857-1.143-16-5.143 5.143-5.143 13.714-9.143 19.429 5.143-6.286-20.571-2.857-20-2.857-8.571 0-22.286-5.714-28.571 2.857-1.143 2.286-1.143 15.429 2.286 12.571-5.143 4-8.571 8-12 10.286-18.857-6.286-36.571-14.286-53.714-23.429 2.286-0.571 4-0.571 6.857 0.571 4.571 1.714 8.571 4.571 13.143 6.857 5.714 2.286 17.714 9.143 24 4 0.571 1.143 2.286 2.286 2.857 2.857 4-4.571 8-9.143 11.429-14.286-4.571 2.286-12 1.143-17.143 0.571-4-1.143-10.857-2.286-12.571-6.857 1.714-2.857 4-7.429 2.857-10.286-7.429 5.143-13.143 13.714-23.429 14.857-4.571 0-9.143 0-12.571-0.571-54.857-30.286-101.143-74.286-134.286-126.857 2.286-2.286 4.571-4 6.857-4.571 5.714-1.714 0-18.286 10.857-9.714 3.429-2.857 4-6.857 1.714-10.857 0.571 0.571 23.429-14.286 25.143-15.429 4-3.429 10.286-7.429 12-12 1.143-4-2.286-8.571-5.714-10.286-0.571 1.143-9.143 9.714-10.286 7.429-1.714-2.857 0-18.286 6.286-17.714-9.143-0.571-5.143-36-7.429-42.857 0-0.571 1.143-0.571 1.143-0.571-1.714-6.857 4-33.714 15.429-30.857-7.429-1.714 13.143-28 16-29.714 7.429-5.143 16-8.571 21.143-16 5.714-8 5.714-20 13.714-26.286-2.286-6.857 12-14.857 11.429-24.571-1.143-0.571-1.714-0.571-2.857-1.143 2.857-8 13.714-8 17.714-15.429 2.286-4.571 0-15.429 7.429-13.143 1.143 12.571-7.429 25.143-13.714 35.429-3.429 5.714-6.857 10.857-9.714 16.571-2.857 5.143-3.429 11.429-5.714 17.143 2.286-0.571 14.857-5.143 13.714-6.857-4.571-11.429 18.286-31.429 24.571-38.857 1.714-1.714 14.857-18.857 8-18.857 7.429 0 17.714-11.429 21.143-17.143 5.143-8.571 4-19.429 7.429-28.571 3.429-11.429 19.429-16.571 28.571-21.714 8-4 14.857-9.714 22.857-12.571 12-4.571 14.857-0.571 25.143 1.143 14.857 2.286 16.571-14.286 28.571-20.571 7.429-4 23.429-9.714 31.429-6.286-3.429-1.143 12-24.571 13.143-26.286 5.143-6.857 14.857-10.286 20.571-17.143 1.714 1.143 3.429 2.857 4 5.143-2.286-6.286 8.571-18.286 14.286-17.143 6.286 1.143 8 13.714 8 18.286-11.429-5.714-21.714-1.143-28 10.286-1.143 2.857-10.286 18.857-2.286 18.857 10.857 0 3.429 8.571 2.286 16.571s-9.143 13.143-13.143 20c-3.429-6.857-14.857-5.143-18.286 0.571 0-1.714-1.714-4.571-1.714-6.857-2.857 0-5.714-0.571-8.571 0.571 1.143 6.857 1.714 15.429 3.429 22.857 2.857 10.286 21.714 30.286-2.857 29.143-8.571-0.571-12-4-14.857-11.429-2.857-6.857-1.714-13.143-9.714-16.571-5.143-2.286-22.286-1.143-27.429 1.714-10.857 6.286-18.286 26.286-18.286 37.714-0.571 15.429 7.429 29.143 0 43.429 3.429 2.857 6.857 8.571 10.857 11.429 3.429 2.286 7.429-1.714 9.143 5.143-1.714 1.143-4 3.429-4.571 3.429 8.571-4 24.571 5.714 32 0 4.571-3.429 9.714-4.571 12.571 1.143 0.571 1.714-4 8.571-1.714 13.143 1.714-9.714 8-11.429 16.571-5.143 3.429-3.429 12.571-2.286 18.857-5.714 6.286-4 7.429-10.286 14.857-1.714 4.571-6.857 5.143-6.857 6.857-13.714 1.714-6.286 5.143-22.286 10.857-25.143 12-7.429 9.143 12.571 8 19.429-0.571 0.571-0.571 19.429-1.143 19.429-18.286 4-11.429 18.286-1.143 28 1.714 1.143 14.857 5.714 20.571 10.286 5.143 4.571 11.429 12.571 8.571 20 2.857 0 5.143 2.286 6.286 5.143-1.714 0.571-8.571 6.286-9.714 5.714 4 2.286 3.429 5.714 1.143 9.143 5.714 3.429 2.857 9.714 8.571 12 6.286-8.571 18.857 1.143 12.571 8 5.714 8 18.857 4 22.286 11.429 8.571-2.286 2.286 8.571 6.857 14.857 4 5.143 10.857 5.143 16 8 0-0.571 14.286 8 9.714 8.571 9.714-1.143 29.143 9.143 14.286 17.714 2.286 5.143-5.143 7.429-10.286 8.571 4 1.143 9.143-1.143 12.571 1.143 7.429 5.143 2.286 7.429-4 9.143-8 2.286-18.286-2.857-24.571-6.857zM575.423 78.857c78.286 13.714 148 52.571 200.571 108-3.429 3.429-9.714 2.286-14.286 4.571-4.571 1.714-8 3.429-13.714 4.571 1.143 11.429-11.429 15.429-19.429 21.143-7.429 5.714-12 12-22.857 9.714-1.143-0.571-12.571-4.571-10.286-6.857-7.429 6.286-10.857 9.714-20.571 12.571-9.143 2.857-15.429 14.286-24.571 4-4.571-4.571-2.286-11.429-4.571-16-7.429 6.286 6.857 13.714 1.143 20.571-6.857 8-18.857-5.143-24.571-8.571-3.429-2.857-7.429-4-9.714-7.429-2.857-4-4-9.143-6.286-13.143-1.714 4.571-11.429 3.429-12 6.857 2.286-13.714 2.286-28 5.143-41.714 1.714-8 0-21.143-6.857-27.429s-15.429-13.143-16.571-22.857c-1.143-6.857 0.571-13.143 6.857-14.857 0.571-8.571-9.143-14.857-8.571-24 0-0.571 0.571-6.286 1.143-9.143z" />
<glyph unicode="&#xf0ad;" glyph-name="wrench" d="M250.568 140.274c0 20-16.571 36.571-36.571 36.571s-36.571-16.571-36.571-36.571 16.571-36.571 36.571-36.571 36.571 16.571 36.571 36.571zM618.568 380.274l-389.714-389.714c-13.143-13.143-32-21.143-51.429-21.143s-38.286 8-52 21.143l-60.571 61.714c-13.714 13.143-21.714 32-21.714 51.429s8 38.286 21.714 52l389.143 389.143c29.714-74.857 89.714-134.857 164.571-164.571zM980.853 628.846c0-18.857-6.857-42.286-13.143-60.571-36-101.714-133.714-172-241.714-172-141.143 0-256 114.857-256 256s114.857 256 256 256c41.714 0 96-12.571 130.857-36 5.714-4 9.143-9.143 9.143-16 0-6.286-4-12.571-9.143-16l-167.429-96.571v-128l110.286-61.143c18.857 10.857 151.429 94.286 162.857 94.286s18.286-8.571 18.286-20z" />
<glyph unicode="&#xf0c9;" glyph-name="menu" d="M950.851 182.857v-73.143c0-20-16.571-36.571-36.571-36.571h-804.571c-20 0-36.571 16.571-36.571 36.571v73.143c0 20 16.571 36.571 36.571 36.571h804.571c20 0 36.571-16.571 36.571-36.571zM950.851 475.428v-73.143c0-20-16.571-36.571-36.571-36.571h-804.571c-20 0-36.571 16.571-36.571 36.571v73.143c0 20 16.571 36.571 36.571 36.571h804.571c20 0 36.571-16.571 36.571-36.571zM950.851 768v-73.143c0-20-16.571-36.571-36.571-36.571h-804.571c-20 0-36.571 16.571-36.571 36.571v73.143c0 20 16.571 36.571 36.571 36.571h804.571c20 0 36.571-16.571 36.571-36.571z" />
<glyph unicode="&#xf0d7;" glyph-name="dropdown" d="M804.564 566.855c0-9.714-4-18.857-10.857-25.714l-256-256c-6.857-6.857-16-10.857-25.714-10.857s-18.857 4-25.714 10.857l-256 256c-6.857 6.857-10.857 16-10.857 25.714 0 20 16.571 36.571 36.571 36.571h512c20 0 36.571-16.571 36.571-36.571z" />
<glyph unicode="&#xf120;" glyph-name="code" d="M367.062 447.788l-266.286-266.286c-7.429-7.429-18.857-7.429-26.286 0l-28.571 28.571c-7.429 7.429-7.429 18.857 0 26.286l224.571 224.571-224.571 224.571c-7.429 7.429-7.429 18.857 0 26.286l28.571 28.571c7.429 7.429 18.857 7.429 26.286 0l266.286-266.286c7.429-7.429 7.429-18.857 0-26.286zM983.633 186.645v-36.571c0-10.286-8-18.286-18.286-18.286h-548.571c-10.286 0-18.286 8-18.286 18.286v36.571c0 10.286 8 18.286 18.286 18.286h548.571c10.286 0 18.286-8 18.286-18.286z" />
<glyph unicode="&#xf14a;" glyph-name="success" d="M464.566 208.571l350.857 350.857c14.286 14.286 14.286 37.143 0 51.429l-58.286 58.286c-14.286 14.286-37.143 14.286-51.429 0l-266.857-266.857-120.571 120.571c-14.286 14.286-37.143 14.286-51.429 0l-58.286-58.286c-14.286-14.286-14.286-37.143 0-51.429l204.571-204.571c14.286-14.286 37.143-14.286 51.429 0zM950.851 713.143v-548.571c0-90.857-73.714-164.571-164.571-164.571h-548.571c-90.857 0-164.571 73.714-164.571 164.571v548.571c0 90.857 73.714 164.571 164.571 164.571h548.571c90.857 0 164.571-73.714 164.571-164.571z" />
<glyph unicode="&#xf1d8;" glyph-name="send" d="M1008.050 944.561c12-8.571 17.714-22.286 15.429-36.571l-146.286-877.714c-1.714-10.857-8.571-20-18.286-25.714-5.143-2.857-11.429-4.571-17.714-4.571-4.571 0-9.143 1.143-13.714 2.857l-258.857 105.714-138.286-168.571c-6.857-8.571-17.143-13.143-28-13.143-4 0-8.571 0.571-12.571 2.286-14.286 5.143-24 18.857-24 34.286v199.429l493.714 605.143-610.857-528.571-225.714 92.571c-13.143 5.143-21.714 17.143-22.857 31.429-0.571 13.714 6.286 26.857 18.286 33.714l950.857 548.571c5.714 3.429 12 5.143 18.286 5.143 7.429 0 14.857-2.286 20.571-6.286z" />
</font>
</defs>
</svg>
